<svg xmlns="http://www.w3.org/2000/svg" xmlns:xlink="http://www.w3.org/1999/xlink" id="visual" version="1.1" viewBox="0 0 900 79.37"><path d="M0 56L9.3 55.3C18.7 54.7 37.3 53.3 56.2 58.7C75 64 94 76 112.8 76.3C131.7 76.7 150.3 65.3 169 60.7C187.7 56 206.3 58 225 57.2C243.7 56.3 262.3 52.7 281.2 55.2C300 57.7 319 66.3 337.8 67.3C356.7 68.3 375.3 61.7 394 64.2C412.7 66.7 431.3 78.3 450 79.3C468.7 80.3 487.3 70.7 506.2 63C525 55.3 544 49.7 562.8 53.3C581.7 57 600.3 70 619 71C637.7 72 656.3 61 675 61.3C693.7 61.7 712.3 73.3 731.2 74.5C750 75.7 769 66.3 787.8 66.3C806.7 66.3 825.3 75.7 844 77.8C862.7 80 881.3 75 890.7 72.5L900 70L900 0L890.7 0C881.3 0 862.7 0 844 0C825.3 0 806.7 0 787.8 0C769 0 750 0 731.2 0C712.3 0 693.7 0 675 0C656.3 0 637.7 0 619 0C600.3 0 581.7 0 562.8 0C544 0 525 0 506.2 0C487.3 0 468.7 0 450 0C431.3 0 412.7 0 394 0C375.3 0 356.7 0 337.8 0C319 0 300 0 281.2 0C262.3 0 243.7 0 225 0C206.3 0 187.7 0 169 0C150.3 0 131.7 0 112.8 0C94 0 75 0 56.2 0C37.3 0 18.7 0 9.3 0L0 0Z" fill="#8041e6"/><path d="M0 69L9.3 62.7C18.7 56.3 37.3 43.7 56.2 41.2C75 38.7 94 46.3 112.8 46.3C131.7 46.3 150.3 38.7 169 36.2C187.7 33.7 206.3 36.3 225 43.5C243.7 50.7 262.3 62.3 281.2 68C300 73.7 319 73.3 337.8 67.7C356.7 62 375.3 51 394 47C412.7 43 431.3 46 450 51.3C468.7 56.7 487.3 64.3 506.2 68.2C525 72 544 72 562.8 71.5C581.7 71 600.3 70 619 67.7C637.7 65.3 656.3 61.7 675 57.5C693.7 53.3 712.3 48.7 731.2 48.8C750 49 769 54 787.8 59.2C806.7 64.3 825.3 69.7 844 67.8C862.7 66 881.3 57 890.7 52.5L900 48L900 0L890.7 0C881.3 0 862.7 0 844 0C825.3 0 806.7 0 787.8 0C769 0 750 0 731.2 0C712.3 0 693.7 0 675 0C656.3 0 637.7 0 619 0C600.3 0 581.7 0 562.8 0C544 0 525 0 506.2 0C487.3 0 468.7 0 450 0C431.3 0 412.7 0 394 0C375.3 0 356.7 0 337.8 0C319 0 300 0 281.2 0C262.3 0 243.7 0 225 0C206.3 0 187.7 0 169 0C150.3 0 131.7 0 112.8 0C94 0 75 0 56.2 0C37.3 0 18.7 0 9.3 0L0 0Z" fill="#347cfe"/><path d="M0 31L9.3 31.8C18.7 32.7 37.3 34.3 56.2 36.8C75 39.3 94 42.7 112.8 41C131.7 39.3 150.3 32.7 169 30.7C187.7 28.7 206.3 31.3 225 35C243.7 38.7 262.3 43.3 281.2 41.3C300 39.3 319 30.7 337.8 26.2C356.7 21.7 375.3 21.3 394 24.2C412.7 27 431.3 33 450 33.5C468.7 34 487.3 29 506.2 29.8C525 30.7 544 37.3 562.8 38.2C581.7 39 600.3 34 619 33.8C637.7 33.7 656.3 38.3 675 39.2C693.7 40 712.3 37 731.2 38.2C750 39.3 769 44.7 787.8 48.7C806.7 52.7 825.3 55.3 844 51.3C862.7 47.3 881.3 36.7 890.7 31.3L900 26L900 0L890.7 0C881.3 0 862.7 0 844 0C825.3 0 806.7 0 787.8 0C769 0 750 0 731.2 0C712.3 0 693.7 0 675 0C656.3 0 637.7 0 619 0C600.3 0 581.7 0 562.8 0C544 0 525 0 506.2 0C487.3 0 468.7 0 450 0C431.3 0 412.7 0 394 0C375.3 0 356.7 0 337.8 0C319 0 300 0 281.2 0C262.3 0 243.7 0 225 0C206.3 0 187.7 0 169 0C150.3 0 131.7 0 112.8 0C94 0 75 0 56.2 0C37.3 0 18.7 0 9.3 0L0 0Z" fill="#00a2fd"/><path d="M0 26L9.3 24C18.7 22 37.3 18 56.2 21.2C75 24.3 94 34.7 112.8 35.2C131.7 35.7 150.3 26.3 169 26.3C187.7 26.3 206.3 35.7 225 34.7C243.7 33.7 262.3 22.3 281.2 18.8C300 15.3 319 19.7 337.8 22.3C356.7 25 375.3 26 394 24.3C412.7 22.7 431.3 18.3 450 18C468.7 17.7 487.3 21.3 506.2 21.7C525 22 544 19 562.8 16.7C581.7 14.3 600.3 12.7 619 14.2C637.7 15.7 656.3 20.3 675 25.5C693.7 30.7 712.3 36.3 731.2 37.7C750 39 769 36 787.8 30.8C806.7 25.7 825.3 18.3 844 19C862.7 19.7 881.3 28.3 890.7 32.7L900 37L900 0L890.7 0C881.3 0 862.7 0 844 0C825.3 0 806.7 0 787.8 0C769 0 750 0 731.2 0C712.3 0 693.7 0 675 0C656.3 0 637.7 0 619 0C600.3 0 581.7 0 562.8 0C544 0 525 0 506.2 0C487.3 0 468.7 0 450 0C431.3 0 412.7 0 394 0C375.3 0 356.7 0 337.8 0C319 0 300 0 281.2 0C262.3 0 243.7 0 225 0C206.3 0 187.7 0 169 0C150.3 0 131.7 0 112.8 0C94 0 75 0 56.2 0C37.3 0 18.7 0 9.3 0L0 0Z" fill="#00bce3"/><path d="M0 5L9.3 7.8C18.7 10.7 37.3 16.3 56.2 16.2C75 16 94 10 112.8 9.8C131.7 9.7 150.3 15.3 169 17.3C187.7 19.3 206.3 17.7 225 18.2C243.7 18.7 262.3 21.3 281.2 21.3C300 21.3 319 18.7 337.8 16C356.7 13.3 375.3 10.7 394 12.8C412.7 15 431.3 22 450 25C468.7 28 487.3 27 506.2 23C525 19 544 12 562.8 8.3C581.7 4.7 600.3 4.3 619 6.5C637.7 8.7 656.3 13.3 675 17C693.7 20.7 712.3 23.3 731.2 21.5C750 19.7 769 13.3 787.8 13.8C806.7 14.3 825.3 21.7 844 23.8C862.7 26 881.3 23 890.7 21.5L900 20L900 0L890.7 0C881.3 0 862.7 0 844 0C825.3 0 806.7 0 787.8 0C769 0 750 0 731.2 0C712.3 0 693.7 0 675 0C656.3 0 637.7 0 619 0C600.3 0 581.7 0 562.8 0C544 0 525 0 506.2 0C487.3 0 468.7 0 450 0C431.3 0 412.7 0 394 0C375.3 0 356.7 0 337.8 0C319 0 300 0 281.2 0C262.3 0 243.7 0 225 0C206.3 0 187.7 0 169 0C150.3 0 131.7 0 112.8 0C94 0 75 0 56.2 0C37.3 0 18.7 0 9.3 0L0 0Z" fill="#00c9a7"/></svg>