<svg id="visual" viewBox="0 0 900 600" width="900" height="600" xmlns="http://www.w3.org/2000/svg" xmlns:xlink="http://www.w3.org/1999/xlink" version="1.1"><path d="M0 94L9.3 89.7C18.7 85.3 37.3 76.7 56.2 73.7C75 70.7 94 73.3 112.8 78C131.7 82.7 150.3 89.3 169 88C187.7 86.7 206.3 77.3 225 75.7C243.7 74 262.3 80 281.2 84.7C300 89.3 319 92.7 337.8 92.8C356.7 93 375.3 90 394 89.7C412.7 89.3 431.3 91.7 450 89C468.7 86.3 487.3 78.7 506.2 76C525 73.3 544 75.7 562.8 79.5C581.7 83.3 600.3 88.7 619 94C637.7 99.3 656.3 104.7 675 105.2C693.7 105.7 712.3 101.3 731.2 96.7C750 92 769 87 787.8 82.7C806.7 78.3 825.3 74.7 844 79.3C862.7 84 881.3 97 890.7 103.5L900 110L900 0L890.7 0C881.3 0 862.7 0 844 0C825.3 0 806.7 0 787.8 0C769 0 750 0 731.2 0C712.3 0 693.7 0 675 0C656.3 0 637.7 0 619 0C600.3 0 581.7 0 562.8 0C544 0 525 0 506.2 0C487.3 0 468.7 0 450 0C431.3 0 412.7 0 394 0C375.3 0 356.7 0 337.8 0C319 0 300 0 281.2 0C262.3 0 243.7 0 225 0C206.3 0 187.7 0 169 0C150.3 0 131.7 0 112.8 0C94 0 75 0 56.2 0C37.3 0 18.7 0 9.3 0L0 0Z" fill="#fa7268"></path><path d="M0 49L9.3 49C18.7 49 37.3 49 56.2 49.8C75 50.7 94 52.3 112.8 58.3C131.7 64.3 150.3 74.7 169 77.5C187.7 80.3 206.3 75.7 225 71.5C243.7 67.3 262.3 63.7 281.2 59.3C300 55 319 50 337.8 52.8C356.7 55.7 375.3 66.3 394 68.7C412.7 71 431.3 65 450 62.3C468.7 59.7 487.3 60.3 506.2 62.3C525 64.3 544 67.7 562.8 64.8C581.7 62 600.3 53 619 49C637.7 45 656.3 46 675 46.5C693.7 47 712.3 47 731.2 49C750 51 769 55 787.8 59C806.7 63 825.3 67 844 69.7C862.7 72.3 881.3 73.7 890.7 74.3L900 75L900 0L890.7 0C881.3 0 862.7 0 844 0C825.3 0 806.7 0 787.8 0C769 0 750 0 731.2 0C712.3 0 693.7 0 675 0C656.3 0 637.7 0 619 0C600.3 0 581.7 0 562.8 0C544 0 525 0 506.2 0C487.3 0 468.7 0 450 0C431.3 0 412.7 0 394 0C375.3 0 356.7 0 337.8 0C319 0 300 0 281.2 0C262.3 0 243.7 0 225 0C206.3 0 187.7 0 169 0C150.3 0 131.7 0 112.8 0C94 0 75 0 56.2 0C37.3 0 18.7 0 9.3 0L0 0Z" fill="#ef5f67"></path><path d="M0 45L9.3 47C18.7 49 37.3 53 56.2 51.3C75 49.7 94 42.3 112.8 41.3C131.7 40.3 150.3 45.7 169 50.3C187.7 55 206.3 59 225 56.5C243.7 54 262.3 45 281.2 46.7C300 48.3 319 60.7 337.8 60.3C356.7 60 375.3 47 394 45.5C412.7 44 431.3 54 450 60.2C468.7 66.3 487.3 68.7 506.2 70.2C525 71.7 544 72.3 562.8 70.2C581.7 68 600.3 63 619 62.8C637.7 62.7 656.3 67.3 675 64.5C693.7 61.7 712.3 51.3 731.2 50.3C750 49.3 769 57.7 787.8 58.2C806.7 58.7 825.3 51.3 844 46.5C862.7 41.7 881.3 39.3 890.7 38.2L900 37L900 0L890.7 0C881.3 0 862.7 0 844 0C825.3 0 806.7 0 787.8 0C769 0 750 0 731.2 0C712.3 0 693.7 0 675 0C656.3 0 637.7 0 619 0C600.3 0 581.7 0 562.8 0C544 0 525 0 506.2 0C487.3 0 468.7 0 450 0C431.3 0 412.7 0 394 0C375.3 0 356.7 0 337.8 0C319 0 300 0 281.2 0C262.3 0 243.7 0 225 0C206.3 0 187.7 0 169 0C150.3 0 131.7 0 112.8 0C94 0 75 0 56.2 0C37.3 0 18.7 0 9.3 0L0 0Z" fill="#e34c67"></path><path d="M0 44L9.3 44.2C18.7 44.3 37.3 44.7 56.2 42.3C75 40 94 35 112.8 35.7C131.7 36.3 150.3 42.7 169 42C187.7 41.3 206.3 33.7 225 31.7C243.7 29.7 262.3 33.3 281.2 35.7C300 38 319 39 337.8 37.3C356.7 35.7 375.3 31.3 394 33.3C412.7 35.3 431.3 43.7 450 47.2C468.7 50.7 487.3 49.3 506.2 44.3C525 39.3 544 30.7 562.8 25.8C581.7 21 600.3 20 619 19.8C637.7 19.7 656.3 20.3 675 24.5C693.7 28.7 712.3 36.3 731.2 35.3C750 34.3 769 24.7 787.8 22.7C806.7 20.7 825.3 26.3 844 28C862.7 29.7 881.3 27.3 890.7 26.2L900 25L900 0L890.7 0C881.3 0 862.7 0 844 0C825.3 0 806.7 0 787.8 0C769 0 750 0 731.2 0C712.3 0 693.7 0 675 0C656.3 0 637.7 0 619 0C600.3 0 581.7 0 562.8 0C544 0 525 0 506.2 0C487.3 0 468.7 0 450 0C431.3 0 412.7 0 394 0C375.3 0 356.7 0 337.8 0C319 0 300 0 281.2 0C262.3 0 243.7 0 225 0C206.3 0 187.7 0 169 0C150.3 0 131.7 0 112.8 0C94 0 75 0 56.2 0C37.3 0 18.7 0 9.3 0L0 0Z" fill="#d53867"></path><path d="M0 16L9.3 18C18.7 20 37.3 24 56.2 27.2C75 30.3 94 32.7 112.8 32.8C131.7 33 150.3 31 169 29.8C187.7 28.7 206.3 28.3 225 28.8C243.7 29.3 262.3 30.7 281.2 27C300 23.3 319 14.7 337.8 10.8C356.7 7 375.3 8 394 8.3C412.7 8.7 431.3 8.3 450 10.8C468.7 13.3 487.3 18.7 506.2 21.2C525 23.7 544 23.3 562.8 21.5C581.7 19.7 600.3 16.3 619 15C637.7 13.7 656.3 14.3 675 13.5C693.7 12.7 712.3 10.3 731.2 8.8C750 7.3 769 6.7 787.8 11C806.7 15.3 825.3 24.7 844 24.7C862.7 24.7 881.3 15.3 890.7 10.7L900 6L900 0L890.7 0C881.3 0 862.7 0 844 0C825.3 0 806.7 0 787.8 0C769 0 750 0 731.2 0C712.3 0 693.7 0 675 0C656.3 0 637.7 0 619 0C600.3 0 581.7 0 562.8 0C544 0 525 0 506.2 0C487.3 0 468.7 0 450 0C431.3 0 412.7 0 394 0C375.3 0 356.7 0 337.8 0C319 0 300 0 281.2 0C262.3 0 243.7 0 225 0C206.3 0 187.7 0 169 0C150.3 0 131.7 0 112.8 0C94 0 75 0 56.2 0C37.3 0 18.7 0 9.3 0L0 0Z" fill="#c62368"></path></svg>